# xmcd
#
# Track frame offsets: 
#        150
#        28050
#        44526
#        62450
#        84974
#        100416
#        118193
#        133545
#        152347
#        193578
#        203965
#        228051
#        249290
#        270231
#
# Disc length: 3925 seconds
#
# Revision: 0
# Processed by: cddbd v1.5.2PL0 Copyright (c) Steve Scherf et al.
# Submitted via: ExactAudioCopy v0.99pb5
#
DISCID=ad0f530e
DTITLE=iLiKETRAiNS - Elegies to Lessons Learnt
DYEAR=2007
DGENRE=Brit Pop
TTITLE0=We All Fall Down
TTITLE1=Twenty Five Sins
TTITLE2=The Deception
TTITLE3=Voice Of Reason
TTITLE4=Death Of An Idealist
TTITLE5=Remnants Of An Army
TTITLE6=We Go Hunting
TTITLE7=Come Over
TTITLE8=Spencer Perceval
TTITLE9=Epiphany
TTITLE10=Death Is The End
TTITLE11=A Rook House For Bobby
TTITLE12=The Beeching Report
TTITLE13=THEEND
EXTD=
EXTT0=
EXTT1=
EXTT2=
EXTT3=
EXTT4=
EXTT5=
EXTT6=
EXTT7=
EXTT8=
EXTT9=
EXTT10=
EXTT11=
EXTT12=
EXTT13=
PLAYORDER=
